<svg width="1024" height="1024" viewBox="0 0 1024 1024" fill="none" xmlns="http://www.w3.org/2000/svg">
<path d="M969.471 369.223C958.631 343.461 940.623 324.887 917.381 315.531L917.069 315.414C906.49 311.271 895.227 309.151 883.866 309.164H882.616C829.413 309.965 775.096 355.18 747.479 421.684C727.225 470.317 724.901 522.621 741.268 561.606C752.088 587.387 770.135 605.961 793.475 615.317L793.729 615.414C804.309 619.555 815.571 621.675 826.932 621.664C880.643 621.664 935.526 576.449 963.651 509.067C983.651 460.492 985.858 408.227 969.471 369.223Z" fill="black"/>
<path d="M756.892 656.059C726.208 637.621 697.204 620.18 678.259 588.852C625.993 502.133 594.431 449.789 511.677 449.789C428.923 449.789 397.282 502.133 344.899 588.852C325.915 620.219 296.853 637.68 266.071 656.195C230.778 677.406 194.313 699.32 178.571 742.445C172.451 757.991 169.368 774.567 169.489 791.273C169.489 861.488 224.177 918.617 291.364 918.617C326.032 918.617 362.927 906.605 401.97 893.891C439.509 881.664 478.317 869.027 511.872 869.027C545.427 869.027 584.138 881.664 621.54 893.891C660.505 906.527 697.224 918.539 731.989 918.539C799.079 918.539 853.669 861.41 853.669 791.195C853.724 774.476 850.575 757.901 844.392 742.367C828.649 699.203 792.165 677.27 756.892 656.059Z" fill="black"/>
<path d="M304.647 381.137C327.889 410.297 357.381 426.352 387.694 426.352C391.832 426.351 395.964 426.045 400.057 425.434C463.28 416.137 502.674 338.988 489.744 249.652C484.334 212.094 469.881 177.113 449.178 151.176C425.975 122.074 396.444 106.039 366.151 106.039C362.013 106.039 357.88 106.346 353.787 106.957C290.565 116.254 251.17 193.402 264.1 282.738C269.491 320.238 283.944 355.18 304.647 381.137Z" fill="black"/>
<path d="M623.319 425.434C627.411 426.045 631.544 426.351 635.682 426.352C666.014 426.352 695.487 410.297 718.729 381.137C739.412 355.18 753.787 320.238 759.256 282.699C772.186 193.402 732.791 116.254 669.569 106.918C665.476 106.307 661.344 106 657.205 106C626.912 106.039 597.381 122.074 574.178 151.176C553.475 177.113 539.022 212.094 533.631 249.691C520.701 338.988 560.096 416.137 623.319 425.434Z" fill="black"/>
<path d="M229.626 615.414L229.899 615.317C253.2 605.961 271.228 587.406 282.028 561.645C298.396 522.582 296.091 470.336 275.876 421.703C247.888 354.399 193.024 309.164 139.372 309.164C128.01 309.148 116.747 311.268 106.169 315.414L105.896 315.512C82.6534 324.789 64.626 343.422 53.8252 369.184C37.458 408.246 39.7627 460.492 59.9776 509.125C87.9659 576.43 142.829 621.664 196.481 621.664C207.823 621.673 219.066 619.553 229.626 615.414Z" fill="black"/>
</svg>
